<svg xmlns="http://www.w3.org/2000/svg" viewBox="0 0 64 64" role="img" aria-label="Business value calculator">
  <rect width="64" height="64" rx="15" fill="#1a1a2e"/>
  <path fill="#2ec4b6" d="M10 12a6 6 0 0 1 6-6h32a6 6 0 0 1 6 6v40a6 6 0 0 1-6 6H16a6 6 0 0 1-6-6z"/>
  <path fill="#f7f4ec" d="M17 13h30a3 3 0 0 1 3 3v33a3 3 0 0 1-3 3H17a3 3 0 0 1-3-3V16a3 3 0 0 1 3-3z"/>
  <path fill="#1a1a2e" d="M20 19h24v7H20z"/>
  <path fill="#2ec4b6" d="M23 31h5v5h-5zm8 0h5v5h-5zm8 0h5v5h-5z"/>
  <path fill="#1a1a2e" d="M23 39h5v5h-5zm8 0h5v5h-5z"/>
  <path fill="#ffbf69" d="M39 39h5v9h-5z"/>
  <path fill="#f7f4ec" d="M24 21h11v2H24z"/>
  <path fill="#ffbf69" d="M38 21h4v2h-4z"/>
  <path fill="#1a1a2e" fill-opacity=".16" d="M50 16v33a3 3 0 0 1-3 3H17a3 3 0 0 1-3-3v-1h27a6 6 0 0 0 6-6V13a3 3 0 0 1 3 3z"/>
</svg>
